<svg xmlns="http://www.w3.org/2000/svg" xmlns:xlink="http://www.w3.org/1999/xlink" width="26" height="26" viewBox="0 0 26 26">
  <defs>
    <clipPath id="clip-path">
      <rect id="Rectangle_17366" data-name="Rectangle 17366" width="26" height="26" transform="translate(280 11)" fill="none" stroke="#707070" stroke-width="1"/>
    </clipPath>
  </defs>
  <g id="ic_eye" transform="translate(-280 -11)" clip-path="url(#clip-path)">
    <path id="Path_139" data-name="Path 139" d="M12.916,6.667a10.584,10.584,0,0,1,9.554,5.958,10.64,10.64,0,0,1-19.109,0,10.584,10.584,0,0,1,9.554-5.958m0-2.167A12.812,12.812,0,0,0,1,12.625a12.8,12.8,0,0,0,23.832,0A12.812,12.812,0,0,0,12.916,4.5Zm0,5.416a2.708,2.708,0,1,1-2.708,2.708,2.709,2.709,0,0,1,2.708-2.708m0-2.167a4.875,4.875,0,1,0,4.875,4.875A4.882,4.882,0,0,0,12.916,7.75Z" transform="translate(280.084 11.5)" fill="#747b97"/>
  </g>
</svg>
