<svg xmlns="http://www.w3.org/2000/svg" xmlns:xlink="http://www.w3.org/1999/xlink" width="26" height="26" viewBox="0 0 26 26">
  <defs>
    <clipPath id="clip-path">
      <rect id="Rectangle_17367" data-name="Rectangle 17367" width="26" height="26" transform="translate(280 11)" fill="none" stroke="#707070" stroke-width="1"/>
    </clipPath>
  </defs>
  <g id="ic_eye_slash" transform="translate(-280 -11)" clip-path="url(#clip-path)">
    <path id="eye-slash" d="M11.725,6.439a7.538,7.538,0,0,1,1.153-.087c3.459,0,6.712,2.491,8.6,6.527a16.567,16.567,0,0,1-.979,1.784A1.087,1.087,0,1,0,22.353,15.8a17.155,17.155,0,0,0,1.316-2.5,1.088,1.088,0,0,0,0-.859c-2.2-5.1-6.331-8.267-10.791-8.267a8.452,8.452,0,0,0-1.523.131,1.1,1.1,0,1,0,.37,2.176ZM3.861,2.316A1.092,1.092,0,0,0,2.316,3.861L5.688,7.222a15.9,15.9,0,0,0-3.6,5.221,1.088,1.088,0,0,0,0,.87c2.2,5.1,6.331,8.267,10.791,8.267a10.073,10.073,0,0,0,5.493-1.675L21.9,23.441A1.092,1.092,0,1,0,23.441,21.9Zm6.918,10,2.665,2.665a1.969,1.969,0,0,1-.566.076A2.176,2.176,0,0,1,10.7,12.878a1.969,1.969,0,0,1,.076-.566Zm2.1,7.092c-3.459,0-6.712-2.491-8.594-6.527A13.152,13.152,0,0,1,7.222,8.756L9.147,10.7a4.351,4.351,0,0,0,5.907,5.907l1.73,1.708a7.876,7.876,0,0,1-3.905,1.088Z" transform="translate(280.004 11.004)" fill="#747b97"/>
  </g>
</svg>
